<?xml version="1.0" encoding="UTF-8" standalone="no"?>
<!DOCTYPE svg PUBLIC "-//W3C//DTD SVG 1.1//EN" "http://www.w3.org/Graphics/SVG/1.1/DTD/svg11.dtd">
<svg version="1.1" xmlns="http://www.w3.org/2000/svg" xmlns:xlink="http://www.w3.org/1999/xlink" preserveAspectRatio="xMidYMid meet" viewBox="0 0 640 640" width="60" height="60"><defs><path d="M394.29 6.66C398.41 6.66 401.74 10 401.74 14.11C401.74 15.6 401.74 12.62 401.74 14.11C401.74 18.23 398.41 21.57 394.29 21.57C363.6 21.57 278.96 21.57 248.27 21.57C244.15 21.57 240.82 18.23 240.82 14.11C240.82 12.62 240.82 15.6 240.82 14.11C240.82 10 244.15 6.66 248.27 6.66C278.96 6.66 363.6 6.66 394.29 6.66Z" id="clZTxM9Ve"></path><path d="M254.35 7.42C258.3 8.16 260.61 12.29 259.18 16.05C212.67 138.05 75.9 496.88 29.39 618.89C27.8 623.06 23.46 625.49 19.08 624.66C16.49 624.18 16.32 624.14 13.74 623.66C9.79 622.92 7.48 618.79 8.91 615.03C55.42 493.03 192.19 134.2 238.7 12.19C240.29 8.02 244.63 5.59 249.01 6.42C251.6 6.9 251.77 6.93 254.35 7.42Z" id="aiWfn3hb2"></path><path d="M389.98 6.59C394.91 5.67 399.8 8.4 401.59 13.09C448.02 134.92 584.25 492.3 630.69 614.13C632.3 618.35 629.69 623 625.26 623.84C622.86 624.29 624.21 624.04 621.81 624.49C616.88 625.41 611.99 622.68 610.21 617.99C563.77 496.16 427.54 138.78 381.11 16.95C379.5 12.73 382.1 8.08 386.54 7.24C388.93 6.79 387.59 7.04 389.98 6.59Z" id="a4vgIFX37C"></path><path d="M258.35 14.05C263.28 13.12 268.17 15.85 269.96 20.54C316.39 142.37 452.62 499.76 499.06 621.58C500.67 625.81 498.06 630.45 493.63 631.29C491.23 631.74 492.58 631.49 490.18 631.94C485.25 632.87 480.36 630.13 478.58 625.44C432.14 503.61 295.91 146.23 249.48 24.4C247.87 20.18 250.47 15.53 254.91 14.69C257.3 14.24 255.96 14.5 258.35 14.05Z" id="b5pR2PAzM"></path><path d="M523.8 344.36C527.92 344.36 531.26 347.7 531.26 351.81C531.26 353.3 531.26 350.32 531.26 351.81C531.26 355.93 527.92 359.26 523.8 359.26C442.08 359.26 204.34 359.26 122.62 359.26C118.5 359.26 115.16 355.93 115.16 351.81C115.16 350.32 115.16 353.3 115.16 351.81C115.16 347.7 118.5 344.36 122.62 344.36C204.34 344.36 442.08 344.36 523.8 344.36Z" id="a1bN88XG3S"></path></defs><g><g><g><use xlink:href="#clZTxM9Ve" opacity="1" fill="#191824" fill-opacity="1"></use></g><g><use xlink:href="#aiWfn3hb2" opacity="1" fill="#191824" fill-opacity="1"></use></g><g><use xlink:href="#a4vgIFX37C" opacity="1" fill="#191824" fill-opacity="1"></use></g><g><use xlink:href="#b5pR2PAzM" opacity="1" fill="#191824" fill-opacity="1"></use></g><g><use xlink:href="#a1bN88XG3S" opacity="1" fill="#191824" fill-opacity="1"></use></g></g></g></svg>