<?xml version="1.0" encoding="UTF-8" standalone="no"?>
<!DOCTYPE svg PUBLIC "-//W3C//DTD SVG 1.1//EN" "http://www.w3.org/Graphics/SVG/1.1/DTD/svg11.dtd">
<svg version="1.1" xmlns="http://www.w3.org/2000/svg" xmlns:xlink="http://www.w3.org/1999/xlink" preserveAspectRatio="xMidYMid meet" viewBox="0 0 640 640" width="300" height="300"><defs><path d="M209.44 132.79L209.44 132.79L187.86 132.79L209.44 132.79Z" id="a2Dh6jIqbz"></path><path d="M211.47 130.12C212.57 130.12 213.47 131.01 213.47 132.12C213.47 132.52 213.47 131.72 213.47 132.12C213.47 133.22 212.57 134.12 211.47 134.12C205.8 134.12 190.78 134.12 185.11 134.12C184 134.12 183.11 133.22 183.11 132.12C183.11 131.72 183.11 132.52 183.11 132.12C183.11 131.01 184 130.12 185.11 130.12C190.78 130.12 205.8 130.12 211.47 130.12Z" id="aAdLTMZEC"></path><path d="M185.16 130.19C186.22 130.47 186.86 131.57 186.57 132.64C177.8 165.38 151.99 261.68 143.22 294.43C142.93 295.5 141.84 296.13 140.77 295.84C140.38 295.74 141.16 295.95 140.77 295.84C139.7 295.56 139.07 294.46 139.36 293.39C148.13 260.65 173.93 164.35 182.71 131.6C182.99 130.53 184.09 129.9 185.16 130.19C185.54 130.29 184.77 130.08 185.16 130.19Z" id="cd0ZEzeMe"></path><path d="M210.92 130.19C211.99 129.9 213.09 130.53 213.37 131.6C222.15 164.35 247.95 260.65 256.73 293.39C257.01 294.46 256.38 295.56 255.31 295.84C254.92 295.95 255.7 295.74 255.31 295.84C254.24 296.13 253.15 295.5 252.86 294.43C244.09 261.68 218.28 165.38 209.51 132.64C209.22 131.57 209.86 130.47 210.92 130.19C211.31 130.08 210.54 130.29 210.92 130.19Z" id="bcZLaRbA6"></path><path d="M186.09 132.19C187.16 131.9 188.25 132.53 188.54 133.6C197.31 166.35 223.12 262.65 231.89 295.39C232.18 296.46 231.54 297.56 230.48 297.84C230.09 297.95 230.86 297.74 230.48 297.84C229.41 298.13 228.31 297.5 228.03 296.43C219.25 263.68 193.45 167.38 184.68 134.64C184.39 133.57 185.02 132.47 186.09 132.19C186.48 132.08 185.7 132.29 186.09 132.19Z" id="cEBCmlBwd"></path><path d="M235.9 220.75C237.01 220.75 237.9 221.65 237.9 222.75C237.9 223.15 237.9 222.35 237.9 222.75C237.9 223.85 237.01 224.75 235.9 224.75C220.6 224.75 176.7 224.75 161.4 224.75C160.3 224.75 159.4 223.85 159.4 222.75C159.4 222.35 159.4 223.15 159.4 222.75C159.4 221.65 160.3 220.75 161.4 220.75C176.7 220.75 220.6 220.75 235.9 220.75Z" id="a2PwfCz0b"></path></defs><g><g><g><use xlink:href="#a2Dh6jIqbz" opacity="1" fill="#567266" fill-opacity="1"></use></g><g><use xlink:href="#aAdLTMZEC" opacity="1" fill="#ffffff" fill-opacity="1"></use></g><g><use xlink:href="#cd0ZEzeMe" opacity="1" fill="#ffffff" fill-opacity="1"></use></g><g><use xlink:href="#bcZLaRbA6" opacity="1" fill="#ffffff" fill-opacity="1"></use></g><g><use xlink:href="#cEBCmlBwd" opacity="1" fill="#ffffff" fill-opacity="1"></use></g><g><use xlink:href="#a2PwfCz0b" opacity="1" fill="#ffffff" fill-opacity="1"></use></g></g></g></svg>